<svg width="281" height="163" viewBox="0 0 281 163" fill="none" xmlns="http://www.w3.org/2000/svg">
<path d="M266.143 96.0717C264.319 95.7123 262.315 96.0522 260.748 97.0756C259.24 98.06 258.932 100.279 257.655 101.111C257.147 101.439 256.01 101.341 255.405 101.455C255.338 101.708 255.338 102.017 255.397 102.275C255.412 102.361 259.791 104.31 260.287 104.572C260.467 104.665 260.639 104.759 260.819 104.845C262.475 105.654 264.248 106.185 266.119 105.615C268.686 104.837 270.928 103.302 272.717 101.361C274.018 99.9506 275.979 97.5522 276.33 96.0561C272.346 96.4389 270.147 96.8725 266.143 96.0717ZM21.5374 56.185C22.9046 58.4272 25.3342 59.8295 27.9514 59.8842C29.0608 59.9037 33.4905 59.8725 33.5725 58.3061C33.6389 57.0834 33.2053 55.4584 32.4983 53.9076C31.6116 51.9545 30.2913 50.1186 28.9944 49.3491C26.5413 47.9076 23.7366 47.2631 20.9397 47.2592C18.9046 47.2553 15.6272 47.4428 14.2092 48.2475C17.3655 51.0795 19.2796 52.4819 21.5374 56.185ZM118.244 15.2826C119.698 16.5366 121.233 17.3569 123.037 17.9389C126.006 18.8959 127.717 19.9662 128.342 23.267C128.975 26.6186 127.533 30.0014 127.983 33.3686C128.08 34.1069 128.205 35.142 128.619 35.767C128.729 35.935 130.287 35.4701 130.463 35.4076C131.694 35.0053 132.592 34.767 132.143 33.3686C131.803 32.3139 131.615 31.1889 131.459 30.0834C131.432 29.8686 131.42 29.6537 131.405 29.4389C131.674 28.9545 131.983 28.5014 132.389 28.1147C133.998 26.5912 136.397 25.4428 138.643 25.9897C139.772 26.267 140.737 27.0873 141.85 27.4741C143.467 28.0405 148.385 27.0873 148.596 24.8686C148.698 23.81 146.932 22.3569 146.201 21.8061C144.615 20.6108 142.752 20.3022 140.791 20.4975C139.647 20.6147 138.541 20.8764 137.479 21.2748C135.225 22.1186 133.073 23.5991 131.592 25.5131C131.737 24.4233 131.963 23.3334 132.365 22.3139C132.803 21.2123 133.561 20.3373 134.182 19.3451C135.596 17.0639 137.44 15.0209 139.662 13.5092C140.619 12.8608 142.158 11.4975 143.326 11.4037C143.358 11.5287 143.397 11.6537 143.444 11.7787C144.01 13.2397 145.561 14.1381 146.963 14.6381C152.373 16.56 157.787 11.4194 156.319 5.91546C155.448 2.63421 151.99 1.35687 148.701 1.6889C144.276 2.13421 140.444 4.48577 137.502 7.74358C135.869 9.55218 134.471 11.5561 133.365 13.728C132.811 14.8178 132.373 15.9584 131.955 17.1069C131.631 18.0053 131.256 19.3686 130.576 19.9194C130.643 19.8608 128.944 16.0131 128.78 15.6616C128.033 14.0834 127.115 12.9623 125.772 11.8608C122.842 9.45452 118.397 9.36858 114.932 10.6342C115.44 12.5444 116.78 14.0131 118.244 15.2826ZM71.6428 21.9233C71.678 21.9233 71.7132 21.9155 71.7483 21.9116C73.0725 26.0366 74.4983 29.4116 78.4827 31.3139C80.4475 32.2514 83.5217 32.4467 83.4514 35.3178C83.3889 37.8569 81.6546 40.5756 81.0491 43.0717C80.5882 44.9819 80.1819 46.9545 79.8889 48.9506C79.4163 46.7397 79.0257 44.5444 78.0178 42.4116C76.3108 38.8061 73.4592 37.2084 70.596 34.6381C69.4983 38.5287 69.9241 44.4194 73.2483 47.1928C75.3069 48.9037 78.7249 49.4897 79.5296 52.0951C79.1389 56.9467 79.5686 61.8412 81.6155 66.3061C82.9319 69.1694 87.6428 77.2436 91.0335 71.978C87.2444 68.4389 85.385 65.7084 83.846 60.6811C83.4163 59.2866 82.9671 57.9897 82.6233 56.6655C85.2092 54.642 89.2483 54.2006 92.1741 52.7436C97.1155 50.2709 98.4983 46.3842 101.701 42.4076C93.9475 41.3725 84.5608 46.0991 82.0842 53.6616C82.0608 53.3451 82.0413 53.0209 82.0374 52.6928C81.9553 46.6811 83.5725 40.5522 88.4788 36.6655C90.3303 35.2045 91.0491 35.0561 93.2796 35.3139C97.1858 35.767 101.354 35.2748 104.651 33.0991C107.24 31.392 108.627 28.5756 109.803 25.7748C110.092 25.8334 110.397 25.8608 110.709 25.8569C113.123 25.8139 115.041 23.8217 114.994 21.4076C114.955 19.0014 112.959 17.0795 110.553 17.1264C108.139 17.1655 106.221 19.1616 106.264 21.5717C106.287 22.8686 106.881 24.0248 107.795 24.8022C108.244 25.185 105.983 28.3412 105.682 28.7006C103.53 31.2983 98.2053 33.935 95.0686 31.2787C96.8499 29.2826 98.6467 28.0756 99.3733 25.2905C99.9007 23.2631 100.526 20.8608 100.592 18.56C100.705 18.5678 100.819 18.5756 100.932 18.5717C103.545 18.5248 105.623 16.3686 105.576 13.7592C105.53 11.1459 103.373 9.07171 100.76 9.11858C98.1467 9.16546 96.0686 11.3217 96.1194 13.9311C96.1546 15.7787 97.2405 17.353 98.7952 18.103C98.5569 22.6733 96.7483 28.0522 92.5842 29.6928C90.1663 30.6459 88.0139 30.7709 87.0491 27.9311C86.096 25.0991 86.8577 22.9272 87.9866 20.7123C88.3069 20.7709 88.6311 20.8022 88.9632 20.7944C91.5803 20.7475 93.6546 18.5951 93.6038 15.978C93.5608 13.3686 91.4046 11.2866 88.7913 11.3373C86.1819 11.3842 84.1038 13.5405 84.1507 16.1537C84.1702 17.0795 84.4553 17.9389 84.928 18.6616C82.9553 22.1889 83.6116 27.2553 85.7444 30.3334C85.3421 29.7514 83.8694 29.3491 83.2874 28.728C82.7053 28.1108 82.1585 27.2592 81.721 26.517C80.6702 24.7319 80.053 22.6655 79.7678 20.6186C79.3382 17.5366 80.4436 13.6186 82.1272 10.8881C82.4866 11.0092 82.8655 11.0834 83.2717 11.0756C85.178 11.0405 86.6975 9.46233 86.6624 7.55608C86.6272 5.64593 85.053 4.1264 83.1428 4.16546C81.2327 4.20062 79.7171 5.77483 79.7522 7.68108C79.76 8.11077 79.8616 8.51702 80.0139 8.89593C80.0725 8.97796 80.1155 9.07562 80.1624 9.16937C79.3616 10.5912 78.5217 11.892 78.0491 13.5795C77.4553 15.7123 77.1507 17.9662 77.1819 20.1811C77.2405 23.7514 78.7796 26.9194 80.5882 29.8998C76.51 28.6225 74.0842 25.8334 73.3694 21.5405C73.6116 21.4389 73.8186 21.2397 74.0022 20.9819C74.678 20.3491 75.1116 19.4506 75.1116 18.4545C75.1116 16.5326 73.5608 14.9819 71.6428 14.9819C69.7249 14.9819 68.1702 16.5326 68.1702 18.4545C68.1702 20.3686 69.7249 21.9233 71.6428 21.9233ZM42.2132 31.4116C41.4085 31.1342 40.3342 31.2592 39.6467 31.4975C39.76 33.0639 40.7014 33.9116 42.0413 34.8061C44.7366 36.6069 47.221 37.2397 50.2171 37.8881C48.1311 37.6459 44.1233 39.392 47.3108 41.2006C52.2639 44.0092 63.1702 36.7084 65.4124 46.3412C65.4592 46.5717 67.7092 45.7436 67.885 45.6342C66.4163 44.4272 65.5725 42.8725 64.9944 41.1772C63.9866 38.2319 63.7913 35.1264 62.5608 32.2358C62.4007 31.8608 59.385 26.4936 58.7991 27.9037C58.303 29.0873 58.1194 30.4701 58.4085 31.8451C57.7171 29.4858 55.6194 24.56 52.8342 25.0131C52.7796 26.2045 52.4241 27.0522 53.01 28.2866C51.3928 26.4584 50.0061 23.8881 47.6467 22.6967C45.678 21.7045 42.6936 21.4936 45.2132 24.5991C43.0569 22.5092 38.9163 21.392 36.135 21.9623C35.2952 24.8725 39.596 30.5092 42.2132 31.4116ZM17.3069 94.142C16.2366 97.1225 19.6936 95.0834 20.6819 94.2123C25.2913 90.1655 25.4631 87.7826 31.2092 91.5678C33.5178 93.0951 37.928 97.8764 39.7014 93.1772C35.8733 92.4741 29.7014 89.4233 30.4163 84.5326C30.4397 84.3686 30.471 84.2045 30.5217 84.0366C31.553 80.2631 36.9944 79.2709 37.9397 75.267C38.5569 72.642 36.0335 74.1772 34.635 75.1303C35.3499 74.0483 36.5374 72.7358 36.4241 71.3451C36.3069 69.9116 35.0882 69.3686 34.1116 70.478C34.6311 69.0561 34.4827 67.3256 34.0257 65.9076C33.803 65.228 32.7132 62.5717 32.1038 62.5561C30.9788 62.5287 30.3421 65.1147 30.0139 65.8803C29.6546 66.728 28.9241 68.8373 29.5022 69.7553C28.7327 68.5366 27.6585 68.6616 27.5217 70.0287C27.3538 71.7475 27.6546 73.5366 28.0882 75.1967C27.5139 74.3373 26.8186 73.7006 26.385 74.8764C25.7874 76.5287 26.7717 78.2709 27.5178 79.685C28.1428 80.8725 28.5335 82.5405 28.3069 83.8803C25.8616 84.2787 24.5452 80.2006 24.5882 78.3725C24.6467 75.9545 25.1155 71.2006 22.7717 69.5561C22.4202 70.06 22.2639 70.6655 22.2796 71.2787C22.1702 68.8022 17.9358 65.3608 17.9944 69.6225C18.2874 66.7866 14.1624 63.8295 13.7171 68.103C13.096 65.3725 7.02565 65.6772 4.98659 66.2397C4.59596 68.2631 7.25612 69.9936 8.42018 71.3178C7.43581 71.4584 5.54127 71.6381 6.01002 72.9819C6.51393 74.4389 10.9631 74.6772 12.2366 74.8217C11.1624 75.4506 8.35377 75.9701 9.25612 77.6147C10.0452 79.0522 13.5569 78.7866 14.9124 78.7787C13.553 79.3608 10.8342 80.1576 12.6038 81.767C14.0413 83.0717 17.2561 82.6303 19.0178 82.6811C21.4124 82.7436 26.5647 83.2866 27.8342 85.8686C29.3342 88.9116 22.8421 87.3491 21.5608 86.6694C20.2757 85.9819 17.9671 83.8998 16.4944 83.9701C15.1624 84.0326 15.0686 85.5561 16.0725 86.5287C14.4983 85.4819 12.5256 84.4701 10.5999 84.2436C9.02565 84.06 6.51784 85.185 8.09987 87.1069C6.66627 86.3998 5.33034 85.9272 3.65846 86.2475C2.99049 86.3686 0.256119 87.1498 0.0295556 87.9819C-0.341538 89.392 2.88893 90.935 3.72096 91.3178C5.6819 92.2201 7.67018 92.3217 9.77565 92.4858C8.9944 93.1889 6.94753 94.0717 7.78346 95.3139C8.6819 96.6498 11.7952 95.0795 12.6897 94.4116C11.3069 97.642 16.3967 95.0639 17.3069 94.142ZM278.276 81.5366C275.307 77.228 271.6 74.81 265.311 75.0795C262.561 75.1967 260.03 76.1303 257.416 76.9428C256.862 77.1264 253.073 78.3764 253.307 77.103C253.448 76.3569 254.709 75.7084 255.303 75.3569C257.502 74.0366 260.115 73.5326 262.408 72.4037C264.51 71.3647 266.6 70.2436 268.143 68.4311C269.483 66.8647 270.526 64.8959 271.248 62.935C271.604 61.9545 272.162 59.728 273.17 58.2084C273.752 57.3295 274.955 56.2319 274.498 56.0483C273.834 55.7787 272.405 55.9701 271.639 56.1264C269.619 56.5326 264.631 57.2592 259.326 62.56C256.237 65.6498 254.951 68.9858 252.955 72.7123C252.182 74.1537 251.178 75.5405 249.908 76.5795C249.272 77.0951 248.639 77.6576 247.924 78.06C245.948 79.1616 244.139 80.0522 241.897 80.5366C241.123 80.7006 240.291 81.0248 239.498 80.9155C240.225 79.8647 241.451 79.0405 242.553 78.4194C243.416 77.9311 245.002 77.5405 246.428 76.1655C248.022 74.6303 248.272 72.3334 248.967 70.5405C249.268 69.7592 250.912 66.935 250.049 66.4506C249.448 66.1069 247.748 66.9897 246.877 67.5248C245.487 68.3842 244.209 69.1694 242.807 71.6655C241.502 73.9897 241.084 76.8022 239.123 78.7319C237.6 80.2358 235.041 80.6264 233.104 79.728C231.705 79.0834 230.662 77.4311 229.756 74.5444C229.494 73.7123 229.541 71.853 228.799 71.8217C227.682 71.6655 225.897 76.0444 227.213 78.7592C228.213 80.8334 229.955 82.2397 233.1 82.8451C234.905 83.1889 237.916 82.6811 239.463 83.6264C240.225 84.0951 240.729 85.7553 241.28 86.978C242.819 90.3842 244.987 92.2358 247.955 93.0326C254.194 94.7123 259.147 94.2866 262.424 93.0326C261.002 89.8451 255.151 87.0405 252.272 86.3998C249.873 85.8686 247.799 85.7631 245.451 85.017C243.08 84.2553 238.494 83.1108 243.377 81.8334C244.834 81.4584 250.869 78.6225 253.678 79.4623C254.698 79.7709 257.307 81.3842 258.451 82.0639C260.483 83.267 264.682 84.3178 267.041 84.5717C270.658 84.9623 271.698 84.8842 274.721 85.7358C276.416 86.2084 279.615 88.3881 279.955 88.0678C280.619 87.4311 279.408 83.1772 278.276 81.5366ZM61.635 123.513C63.2444 123.97 66.4632 125.056 67.9085 125.88C70.0374 127.099 74.4046 129.939 75.51 129.935C76.3538 129.931 73.7874 124.158 72.3694 123.04C72.178 122.892 67.6467 121.443 63.9749 120.275C62.0764 118.369 61.471 113.908 60.553 112.205C58.9983 109.314 56.6858 108.923 54.1663 107.423C54.2757 110.654 54.3069 113.759 56.7249 116.228C57.9788 117.513 59.5139 118.033 61.0842 118.845C61.6389 119.13 62.1507 119.486 62.6546 119.853C62.2639 119.732 61.885 119.611 61.5452 119.501C57.7835 118.302 53.9397 117.365 50.1975 116.095C44.8421 114.283 43.346 114.802 41.5921 109.876C40.5413 106.912 41.8381 101.013 36.2249 98.1537C36.1311 98.1069 28.7717 106.728 38.2874 113.99C36.721 113.615 33.7796 112.99 31.0257 110.986C27.8421 108.669 25.8967 105.048 22.1116 103.447C19.4592 102.322 14.7717 100.744 10.4944 102.497C11.0413 105.314 12.0139 109.322 15.7913 111.974C21.2131 115.783 32.7639 117.505 36.0335 117.365C36.2444 117.361 25.9671 118.037 22.971 118.849C18.3538 120.111 15.3303 121.626 13.5803 125.997C15.3928 125.177 18.3616 124.521 21.2561 124.966C32.4866 126.701 35.2327 121.576 37.7249 119.935C42.1311 117.037 46.4749 118.259 51.1116 119.361C45.3928 119.845 38.7444 123.845 35.9592 128.872C34.6975 131.146 33.3264 134.888 33.6116 137.486C36.8264 137.138 40.3421 134.736 42.4397 132.361C44.51 130.021 45.4671 126.904 47.471 124.509C49.9632 121.529 54.7171 119.798 58.3616 121.697C56.178 122.15 53.0413 123.986 53.2639 126.474C53.5491 129.638 57.6546 130.224 60.0999 130.294C59.3889 129.333 58.7757 127.494 58.8772 125.759C59.01 123.54 59.9202 123.025 61.635 123.513ZM219.463 132.494C210.506 134.396 193.666 137.365 185.291 138.193C176.916 139.021 149.533 139.759 144.252 139.755C132.83 139.74 116.28 139.345 105.948 138.622C103.479 138.451 75.6858 135.517 69.4788 133.849C63.5882 132.259 58.4905 132.529 63.8342 137.997C76.9592 151.455 96.1663 157.513 96.3421 156.712C96.1038 157.814 92.8733 159.236 93.8694 161.255C94.1975 161.919 95.5413 162.001 96.7991 162.103C100.569 162.404 104.408 162.478 107.815 162.501C118.057 162.568 126.873 162.833 137.397 162.841C142.432 162.845 177.85 162.697 186.17 162.357C187.627 162.294 190.08 162.251 190.49 161.509C190.963 160.63 190.24 159.47 189.795 158.892C189.244 158.173 188.28 157.693 188.256 156.962C190.588 156.47 206.186 153.001 219.924 139.587C220.323 139.201 224.127 135.021 223.51 132.728C223.162 131.435 220.514 132.267 219.463 132.494ZM254.537 106.939C252.67 106.537 248.205 105.849 243.104 108.095C243.651 107.361 245.432 106.361 246.803 104.33C247.549 103.22 247.401 102.005 247.608 100.771C247.752 99.8959 248.127 99.0092 248.319 98.1616C243.627 98.8334 240.573 104.353 240.651 108.849C233.166 111.431 228.467 114.087 223.459 118.298C220.26 120.986 216.283 123.693 212.42 124.654C214.33 123.419 216.205 121.607 217.338 119.576C217.865 118.638 218.186 117.603 218.393 116.548C218.592 115.533 218.74 113.865 218.319 112.912C217.424 113.247 216.744 113.806 215.944 114.29C215.182 114.744 214.354 115.154 213.615 115.662C212.147 116.669 210.858 118.072 210.569 119.872C210.256 121.767 210.69 124.224 210.369 124.654C210.002 125.154 208.655 125.708 208.088 125.798C206.873 125.982 203.182 126.708 201.362 124.654C200.451 123.634 200.834 122.302 201.502 121.783C201.787 122.634 202.592 122.787 203.385 122.505C204.764 122.013 205.03 120.244 204.783 119.005C204.487 117.517 203.377 116.326 201.901 115.947C199.873 115.427 197.709 115.533 195.772 117.587C194.643 118.783 194.092 121.244 194.291 122.833C194.674 125.892 197.811 128.9 200.678 129.56C208.545 131.384 216.401 128.345 223.975 122.529C226.834 125.587 231.612 125.302 233.229 124.908C235.748 124.294 236.791 123.384 237.928 122.318C238.694 121.607 239.287 121.029 239.955 120.497C237.815 119.638 236.065 118.724 233.631 119.08C231.108 119.447 228.428 121.513 225.815 120.72C228.877 118.197 232.901 115.767 236.576 114.197C241.26 112.201 246.971 110.056 251.951 111.431C259.1 113.404 257.307 118.494 255.553 119.443C255.994 118.685 255.526 117.701 254.615 116.904C253.354 115.798 250.928 115.31 249.03 115.99C245.873 117.119 244.639 120.771 245.854 123.669C247.33 127.205 252.436 128.306 255.791 127.31C261.67 125.556 264.631 119.474 262.557 113.724C261.225 110.029 258.354 107.763 254.537 106.939ZM92.1233 60.3686C91.8967 60.7631 91.9163 61.3217 92.4085 61.6186C92.8577 61.892 93.2717 61.5366 93.7561 61.7358C94.3225 61.9701 96.1624 65.2084 96.6194 65.9897C95.3889 67.1303 94.5374 68.4037 94.8655 69.7983C94.8811 69.8764 94.9124 69.9858 94.9436 70.06C95.4553 71.2944 102.791 83.5834 103.549 84.6694C104.549 86.1108 106.967 85.1264 108.783 84.2631C110.436 83.2866 112.362 82.5131 114.014 81.5366C116.623 79.9311 116.662 79.2514 116.823 78.8334C117.147 78.0053 116.592 77.0366 116.307 76.5561C115.401 75.0092 112.084 69.2944 111.721 68.685C110.787 67.0951 108.256 62.7123 108.162 62.5444C107.24 60.9819 104.733 61.4467 103.865 61.7358C103.459 61.0053 101.428 57.7826 101.412 57.2787C101.389 56.7358 102.033 56.3803 101.99 55.8842C101.928 55.2475 101.264 55.0014 100.709 55.1186C100.26 55.2201 99.6389 55.6967 99.1507 55.8451C98.9866 55.892 98.2561 54.5248 98.0921 54.5248C96.3889 55.5209 94.6858 56.5248 92.9866 57.5209C92.8616 57.6264 93.6858 59.0522 93.471 59.2436C93.053 59.6108 92.3421 59.9936 92.1233 60.3686ZM168.678 31.31C166.694 28.81 163.584 20.4741 156.225 17.6264C155.76 17.4428 154.799 23.1616 156.744 28.4741C157.897 31.6342 159.084 33.103 161.166 35.5717C166.065 41.3764 173.549 41.1576 179.83 43.6928C182.725 44.8569 185.815 48.6342 187.998 47.8842C188.744 47.6264 192.182 46.7631 192.459 46.1772C193.244 44.5209 188.905 45.603 184.885 43.4155C182.842 42.3061 181.225 41.1342 185.467 40.9936C192.115 40.767 195.94 38.5795 199.428 34.3061C200.533 32.9467 206.311 23.4662 205.455 22.7787C203.842 21.4936 195.912 28.228 194.748 29.2397C191.127 32.4037 187.795 38.1147 182.631 38.6967C181.494 38.8217 180.459 38.5561 180.127 37.3608C179.627 35.56 184.061 28.4037 184.432 27.8959C184.494 27.8569 185.967 28.4858 187.342 28.3295C189.037 28.1381 190.803 27.5326 192.135 26.2475C194.155 24.31 195.698 21.8608 194.807 18.3217C194.287 16.2631 191.85 15.1342 189.889 15.3608C186.858 15.7162 184.838 17.5756 183.256 20.1889C182.58 21.3022 182.119 22.9428 182.205 24.0678C182.365 26.2045 183.057 26.3022 182.83 26.7787C182.655 27.1537 180.299 29.3764 178.744 33.2944C177.026 35.8842 174.811 21.3451 175.252 20.8451C175.35 20.7358 179.283 19.6108 181.655 16.8959C184.522 13.603 185.842 8.37249 184.815 5.02874C184.428 3.75921 183.725 2.61468 182.807 1.66937C178.924 -2.33454 172.889 1.63812 170.537 5.47015C168.78 8.3178 168.088 11.8608 169.088 15.2866C170.135 18.8647 171.721 19.603 172.092 20.6342C172.729 22.4037 172.487 23.9819 172.768 26.2241C173.416 31.4116 175.201 35.7123 178.1 40.2826C174.526 39.2866 170.963 34.1811 168.678 31.31ZM126.713 121.177C121.256 125.072 116.854 132.884 118.701 134.193C118.877 134.322 124.569 134.466 129.119 132.189C132.729 130.38 136.162 127.326 138.53 122.376C140.326 118.611 140.975 116.22 142.424 111.583C143.166 109.205 144.248 105.169 146.412 101.818C147.487 100.158 154.893 93.9741 155.346 93.1967C156.151 91.8334 154.893 86.8334 153.885 86.4194C152.877 86.0131 151.897 88.8881 151.135 90.267C146.514 98.642 134.49 105.556 131.936 102.697C130.569 101.165 128.744 99.5991 125.873 97.5522C122.186 94.9194 115.365 93.0522 108.319 90.7826C104.131 89.4389 96.7171 83.7358 95.7288 85.2436C95.1428 86.142 96.135 89.4662 96.4866 90.2826C97.9983 93.8022 101.268 97.0756 108.569 99.0951C112.694 100.228 114.237 100.138 120.545 100.622C123.201 100.83 131.018 103.81 127.139 105.65C116.967 108.513 108.338 108.369 97.1155 102.083C93.2796 99.9428 86.2288 93.7983 85.135 92.7201C85.4944 90.392 86.4241 83.7123 84.0921 83.1264C82.9983 82.8569 82.2756 83.685 81.7717 85.2514C82.2092 83.4506 82.7639 78.9076 80.135 78.3842C79.1975 78.1889 78.5217 78.5795 77.8225 79.892C78.5608 77.5287 77.6389 73.853 76.2796 73.5014C74.8538 73.1264 73.9788 74.603 73.2522 76.0131C74.9475 71.9037 73.9163 69.4819 72.4553 69.0639C71.2522 68.7162 69.7249 70.142 68.8499 71.392C69.3421 70.5405 69.8499 68.7944 70.1233 68.06C71.1975 65.2045 71.3967 63.392 71.4671 60.9858C71.5569 58.2397 70.6702 55.5092 70.8108 52.7241C70.7835 53.2866 68.5139 54.392 67.2639 55.728C65.7171 57.3881 65.0452 58.8412 64.9046 61.1342C64.8108 62.6264 65.2522 64.1616 64.135 65.3412C63.3108 63.8647 63.4671 61.5248 63.471 59.9116C63.4749 58.4389 63.5803 56.9272 63.471 55.4623C63.3147 53.2748 63.5139 51.8022 61.4553 48.7592C60.3382 47.1108 56.6389 44.3842 56.9007 43.9975C55.8108 45.6147 54.3069 47.8647 54.5764 51.6186C54.76 54.185 56.303 56.0873 57.4358 58.3217C58.0413 59.5209 60.0217 64.3842 59.7561 65.7397C59.7171 65.8256 56.1702 64.5287 54.221 61.0014C52.2249 57.4037 52.3499 54.9233 49.1272 51.1772C45.8967 47.4116 42.4085 46.8569 37.721 47.6733C38.8186 47.4819 38.8303 53.5287 41.1741 57.0717C44.8342 62.6108 51.8264 65.1733 53.1233 65.9701C56.8108 68.2397 56.3225 69.3295 56.8108 70.4701C53.3967 66.8217 45.0569 66.6303 40.8694 68.3217C42.2405 69.9975 43.8772 71.8295 45.6389 73.1147C50.7639 76.8647 55.26 75.7201 61.1624 75.8295C59.3108 76.4467 57.6741 77.2201 57.8186 79.0991C57.9788 81.2006 61.0842 82.0678 64.5882 81.5326C61.6702 81.9819 60.635 84.2787 61.596 85.4506C62.6975 86.7905 66.8616 87.3842 68.3811 86.7592C67.4319 87.0873 65.1858 88.1537 65.7053 89.5522C66.553 91.8569 70.471 92.517 72.6155 91.8491C71.303 92.3881 70.6819 93.4623 71.3694 94.4701C72.6233 96.3061 80.0686 96.4194 81.3382 95.728C81.2913 95.7514 90.1311 104.283 99.2483 107.431C102.862 109.037 93.4006 111.54 87.0842 108.236C81.8303 105.482 77.5139 104.423 72.721 105.47C76.2092 110.611 81.596 114.392 85.1077 115.107C90.303 116.165 95.1624 114.982 99.4944 112.544C104.842 108.533 107.619 111.24 115.694 111.31C121.983 112.095 115.483 115.724 111.58 118.185C106.69 121.267 101.186 122.326 97.2522 122.326C90.1428 122.326 82.9671 121.822 81.2327 123.013C81.4475 125.728 91.9241 132.044 100.674 131.189C108.885 130.388 111.479 127.404 115.303 123.58C117.588 121.294 119.916 117.802 123.369 112.595C124.494 110.146 128.889 110.72 138.412 106.279C141.08 105.31 139.205 111.154 137.678 113.447C136.049 115.9 129.291 119.333 126.713 121.177ZM168.432 114.025C170.119 110.408 178.908 102.302 180.772 101.513C180.448 101.65 185.78 106.29 192.819 103.642C195.291 102.712 197.369 101.497 199.018 99.3451C201.198 96.4858 201.783 92.3217 199.514 89.3412C196.975 86.0014 191.158 85.7748 186.213 88.2475C184.752 88.978 181.865 91.3061 180.502 93.5561C178.889 96.228 179.326 99.0951 179.1 99.2397C175.127 101.783 172.155 102.294 166.49 111.326C164.561 114.392 163.26 117.513 160.838 120.247C160.135 121.044 155.826 124.505 154.237 124.505C157.408 121.665 159.678 118.013 160.744 116.068C165.073 108.142 166.584 101.154 167.045 98.9233C167.576 96.3491 167.569 93.2397 167.463 93.2553C163.623 93.9155 159.74 98.6537 157.323 102.287C154.252 106.892 152.998 111.119 152.022 116.982C151.502 120.103 150.772 123.224 147.877 125.607C145.33 127.708 142.502 126.912 141.838 127.802C140.811 129.169 139.03 134.115 140.123 134.009C142.412 133.779 147.455 131.9 150.666 130.439C153.096 129.322 154.729 131.357 157.112 132.513C167.705 137.646 177.471 134.759 182.373 131.646C186.174 129.236 188.194 125.857 188.069 124.103C186.26 123.56 179.791 124.767 175.08 126.583C172.912 127.412 162.209 131.697 158.276 128.638C157.764 128.24 159.666 127.638 160.268 127.49C166.799 125.857 172.295 123.497 177.252 119.986C178.17 120.669 179.326 121.001 180.522 121.193C182.498 121.513 185.369 120.966 187.217 120.279C190.85 118.931 195.744 113.126 191.533 109.509C188.631 107.013 183.545 108.154 180.479 109.931C179.061 110.759 177.795 111.646 176.78 112.951C175.248 114.915 175.139 117.29 175.553 117.822C169.76 121.806 164.268 123.361 160.936 123.986C163.651 122.744 166.635 117.876 168.432 114.025ZM202.44 66.767C202.209 67.0639 200.522 68.6928 200.541 68.8178C200.354 67.5014 200.03 66.3295 200.424 64.9936C201.225 62.2475 203.08 59.8725 203.826 57.0053C205.272 51.4116 203.514 45.2006 201.424 39.9897C200.268 40.7866 199.412 41.8061 198.49 42.8998C196.326 45.4662 194.658 48.6342 193.994 51.935C192.998 56.9037 194.139 60.6733 196.135 65.1694C197.643 68.5639 198.721 69.7241 198.198 72.3686C197.873 73.9741 197.323 76.1303 196.303 77.4272C195.58 76.1694 194.682 75.2045 194.342 73.7748C194.03 72.4623 194.026 71.0951 193.873 69.767C193.573 67.1459 192.694 65.0912 190.889 63.1186C190.076 62.2319 189.123 61.4584 188.268 60.6147C187.221 59.5756 185.823 58.1694 185.022 56.9272C183.627 58.935 183.826 62.2905 184.061 64.6186C184.338 67.3334 185.377 69.9545 187.112 72.0717C188.78 74.1069 190.85 75.4389 192.979 76.8647C195.463 78.5248 194.51 81.1928 193.248 83.3998C192.682 84.392 197.084 82.8022 198.002 82.5131C199.049 82.1889 200.03 81.8686 200.533 80.8608C201.049 79.8373 201.248 78.6889 201.576 77.5951C201.85 76.6811 202.006 76.5795 202.99 76.7006C203.658 76.7866 204.303 77.0326 204.94 77.2436C207.889 78.2436 210.998 77.3022 213.674 75.9584C214.713 75.4389 215.389 74.9467 216.135 74.0053C216.815 73.1381 218.498 70.5014 217.612 69.4428C216.678 68.3256 213.799 69.2397 212.791 69.728C211.151 70.5248 210.033 71.853 208.549 72.853C207.506 73.5561 206.342 73.8881 205.174 74.3139C204.959 74.392 202.252 74.9858 202.494 74.5717C203.338 73.0991 204.194 71.9116 205.244 70.5444C206.436 68.9975 207.83 67.6186 209.545 66.6616C211.561 65.5326 213.854 64.935 216.139 64.6303C218.389 64.3334 220.705 65.3334 222.768 66.1498C224.963 67.0131 227.022 67.9741 229.412 68.3686C232.608 68.8959 234.6 68.1772 236.498 67.9272C238.924 67.603 240.213 67.8451 240.588 67.4506C241.58 66.392 240.377 65.0795 238.397 63.8451C235.061 61.7631 229.526 59.8959 228.541 59.7905C223.471 59.2397 218.264 60.6225 213.541 62.3451C212.166 62.8491 208.959 63.6069 208.362 65.1811C209.229 62.9037 210.897 61.0639 211.881 58.8451C212.877 56.5991 213.803 54.2983 214.912 52.1186C215.635 50.6967 219.194 47.6381 221.834 44.4389C227.522 37.5444 227.225 28.4272 223.51 20.7787C223.334 20.4194 220.967 16.5639 220.815 16.8178C218.092 21.3608 215.041 26.4584 213.088 31.4233C210.912 36.9545 210.639 42.1928 210.873 48.1694C210.924 49.603 211.084 51.0639 210.748 52.4701C210.436 53.7905 209.787 54.9975 209.276 56.2514C208.143 59.017 206.588 61.603 204.655 63.8842C203.873 64.81 203.182 65.81 202.44 66.767ZM227.983 56.4701C228.248 56.9467 228.979 56.8373 229.393 56.7475C230.459 56.5131 231.522 56.2592 232.561 55.9155C233.424 55.6264 234.291 55.0092 235.119 54.8061C235.541 54.7006 235.877 54.6537 236.323 54.6537C238.467 54.6655 238.393 56.7514 239.666 58.0522C242.854 61.3022 246.248 60.267 245.346 58.7397C245.143 58.3959 244.865 58.0678 244.619 57.7592C244.405 57.4858 244.076 57.2319 243.932 56.9076C245.139 58.1186 246.744 58.5366 248.354 58.5561C249.151 58.5678 251.139 58.5405 251.334 57.3451C251.381 57.0951 251.291 56.8334 251.178 56.6147C251.076 56.4116 250.643 55.7123 250.424 55.7006C252.209 55.7826 254.721 54.6342 255.795 53.7592C256.24 53.392 256.846 52.603 256.268 52.0366C255.858 51.6342 255.553 51.4272 254.545 51.1147C253.041 50.6537 251.744 50.9897 250.264 51.3842C250.635 50.9858 251.24 50.7241 251.455 50.1694C251.76 49.3686 250.725 49.2006 250.244 49.1381C249.088 48.9897 247.319 49.3022 246.221 50.0444C246.963 49.2201 247.088 48.0209 245.53 48.3491C244.584 48.5483 243.6 49.1225 242.823 49.6811C241.553 50.5873 240.35 51.8217 238.756 52.1342C240.033 51.1772 241.194 50.1069 242.338 48.9741C243.412 47.9076 244.44 46.7709 244.869 45.9076C247.584 46.6381 253.752 45.6264 255.342 43.0248C254.803 42.6772 254.123 42.4311 253.084 42.2787C254.662 41.5756 257.104 40.1537 257.42 37.3412C256.549 37.2045 255.436 36.9975 254.455 36.7866C256.854 35.9076 257.854 32.2397 257.467 30.7709C256.475 30.3256 252.772 31.267 252.319 34.8217C252.338 34.2201 252.272 31.7592 252.045 31.2201C250.096 31.9467 248.346 33.9545 247.893 36.2592C247.666 35.4897 247.248 34.1342 246.76 33.5873C244.459 35.1225 243.85 38.1108 243.588 40.7592C243.201 44.728 242.115 46.6928 239.248 49.31C240.455 47.6616 241.436 45.7905 241.783 43.6928C241.963 42.6264 241.979 41.5326 241.873 40.4584C241.74 39.1069 241.073 39.7123 240.846 40.0092C240.576 40.3647 240.123 41.1928 239.674 41.7866C240.44 39.81 240.448 38.8764 240.53 38.0834C240.604 37.3881 240.518 36.5873 240.303 35.9076C240.143 35.4037 239.561 35.2397 239.162 35.5405C238.744 35.8491 238.393 36.2826 238.065 36.6967C238.155 36.5873 237.819 35.6303 237.776 35.4741C237.576 34.7592 237.342 34.0366 237.002 33.3881C236.823 33.0444 236.612 32.728 236.311 32.4975C235.701 32.0209 235.365 32.6928 235.045 33.1967C234.811 33.5717 234.639 33.9858 234.514 34.4155C234.069 35.9389 233.897 37.5795 233.811 39.1733C233.83 38.8491 233.186 38.1147 232.916 38.0561C232.244 37.9155 231.998 39.2787 231.948 39.7592C231.838 40.8647 232.135 42.2397 232.506 43.267C232.701 43.7983 232.936 44.31 233.194 44.81C233.44 45.2944 233.639 45.8061 233.936 46.2475C233.416 46.1889 232.936 45.8295 232.369 45.8334C230.635 45.8373 232.405 48.228 232.897 48.7944C233.498 49.4936 234.252 50.0444 235.03 50.5287C236.631 51.5287 233.819 53.0092 233.065 53.353C232.221 53.7397 230.198 54.0561 229.283 54.0561C228.94 54.0561 227.795 53.642 227.541 54.0639C227.365 54.3451 227.44 54.8217 227.502 55.1225C227.6 55.6108 227.748 56.0444 227.983 56.4701ZM225.604 83.8217C224.588 83.767 223.174 84.7709 222.389 85.5795C222.323 85.6537 224.229 78.2358 222.623 75.8608C219.901 76.1342 217.416 78.0053 215.35 80.0717C212.916 82.5053 210.58 87.1303 210.307 90.6967C210.225 87.9037 208.932 86.5131 206.635 85.1616C206.217 84.9155 205.373 87.5209 205.326 87.7592C204.557 91.478 204.862 97.0639 206.315 100.587C207.405 103.216 208.721 103.814 208.924 104.486C209.526 106.497 207.428 107.97 205.573 107.861C203.729 107.759 200.959 105.888 199.307 105.158C198.889 106.685 199.823 109.833 200.662 111.177C201.362 112.306 203.905 112.33 205.073 112.31C209.533 112.22 212.869 109.263 213.373 108.646C214.178 109.205 219.174 110.052 222.006 110.001C226.217 109.919 231.006 108.521 231.522 107.091C230.326 105.521 228.416 105.497 226.651 105.099C228.19 105.146 230.315 104.716 231.701 104.025C232.979 103.388 234.198 102.544 235.291 101.622C237.252 99.9623 239.346 97.7201 240.01 95.1616C240.588 92.9233 238.541 93.1616 237.084 93.1616C234.592 93.1616 231.213 93.8686 229.006 95.103C229.951 93.6498 229.717 92.3608 228.022 92.2475C225.346 92.0678 223.104 94.0873 221.01 95.5326C222.26 93.7709 222.815 93.228 223.842 91.3217C225.834 87.6498 225.99 84.6616 225.604 83.8217ZM146.518 68.3764C143.174 69.7162 141.088 69.8451 137.842 72.9037C135.862 74.767 134.01 77.8959 131.877 79.5092C126.276 83.7514 123.338 83.9389 120.545 84.7045C124.08 88.3334 131.444 89.2319 134.928 88.9076C144.963 87.9741 150.67 82.3881 152.26 77.142C153.631 72.6186 151.291 70.685 151.291 70.5717C151.291 67.9936 155.459 61.5366 156.033 60.1694C155.405 61.6694 158.123 64.9116 159.057 65.8178C161.823 68.4936 166.178 69.2201 168.362 69.2201C172.123 69.2123 176.545 66.478 175.85 61.8256C175.592 60.1147 174.225 58.5717 171.744 57.8022C170.319 57.3608 166.526 57.2905 165.412 60.1147C164.807 61.6498 165.412 62.6694 165.924 63.1928C165.346 64.0873 162.791 64.1186 161.19 62.9076C158.869 61.1498 157.045 57.0483 157.291 54.0912C157.799 48.0248 166.119 53.2319 168.432 54.3373C170.772 55.4584 174.569 55.9858 176.569 55.1772C176.498 51.0522 174.252 49.0444 174.229 49.0209C172.678 47.6772 170.951 46.7475 168.975 46.2748C165.092 45.3451 160.881 46.6264 157.619 48.6069C157.244 45.2319 155.78 40.7241 153.498 38.1694C149.658 33.8491 146.569 32.767 144.1 32.4623C141.166 32.0951 138.291 32.1108 138.381 33.2319C138.494 34.5014 140.678 34.103 143.541 35.4701C145.639 36.4701 147.424 37.5131 148.69 39.5678C149.561 40.9858 149.78 42.353 148.873 44.2045C147.916 46.1576 146.74 46.978 144.951 47.9584C145.389 47.7201 145.252 46.3451 145.158 45.9701C144.994 45.3256 144.6 44.7553 144.049 44.3803C143.326 43.8803 142.455 43.6342 141.58 43.8139C138.748 44.4037 137.377 47.8451 138.869 50.2631C140.768 53.353 144.955 53.3842 147.752 51.3491C150.022 49.6889 151.483 47.103 151.631 44.2084C152.565 46.3959 153.932 49.0209 152.975 52.1264C152.549 53.517 150.858 55.1694 149.631 55.9467C147.006 57.6186 145.225 57.7905 142.838 58.1655C140.823 58.4819 138.565 58.7397 136.979 60.1264C135.963 61.0092 135.104 62.353 135.635 63.8178C137.115 67.8881 143.756 65.6498 146.162 64.0522C150.217 61.3569 152.811 56.9858 152.838 56.9467C152.401 60.0131 150.623 65.0366 146.518 68.3764ZM184.928 77.8608C185.397 77.6811 186.748 77.4389 186.694 76.7397C186.655 76.2866 186.182 75.7006 185.932 75.3256C185.701 74.9741 185.287 74.3491 184.772 74.4858C183.533 74.8139 182.01 75.6108 180.608 76.2006C179.971 76.4701 179.268 76.81 178.58 77.1108C177.94 77.3881 176.897 77.9545 176.444 77.9155C175.78 77.8686 174.889 77.4037 174.108 77.142C169.963 75.7748 166.682 74.31 162.557 72.9467C161.549 72.6108 158.311 71.0912 157.623 71.8764C156.686 72.9467 157.342 74.5131 157.877 74.8178C158.17 74.9819 158.045 75.4272 157.94 75.7201C157.498 76.9701 157.526 78.3569 157.592 79.6616C157.701 81.6655 158.174 83.4584 159.131 85.2201C159.307 85.5366 160.073 86.9037 160.256 87.0326C161.018 87.5561 162.533 87.7866 163.565 88.1225C166.147 88.978 167.865 89.5444 170.311 90.353C171.381 90.7084 172.768 91.4233 173.686 91.4701C174.026 91.4897 174.928 91.0873 175.479 90.8373C178.178 89.6303 180.459 87.1459 182.006 83.9311C182.826 83.5522 184.037 83.9467 184.643 83.1459C184.928 82.7748 183.514 80.9467 183.26 80.6811C183.01 80.4155 182.721 80.1889 182.416 79.9936C182.24 79.8842 181.612 79.4155 181.412 79.4662C181.651 79.4076 181.823 79.2397 182.033 79.1303C182.951 78.6381 183.955 78.2358 184.928 77.8608ZM50.4944 101.603C50.6311 102.142 51.096 102.376 51.4944 102.287C52.4124 102.068 52.2249 99.9701 53.0803 99.7592C55.3967 101.404 57.5725 103.251 59.9358 104.896C64.3186 107.951 69.1038 111.001 72.0178 115.783C72.4827 116.548 72.6155 117.607 73.4475 118.165C73.76 117.81 73.5608 117.49 73.5139 117.197C73.0061 114.095 71.7796 111.349 70.4514 108.861C68.1233 104.494 64.7717 100.63 61.4475 97.6576C59.5842 96.0014 57.4592 95.0209 55.7249 93.6225C55.7288 92.5483 57.3108 91.103 56.846 89.9272C56.7561 89.6889 56.2405 89.353 55.9553 89.4076C54.9514 89.5912 54.928 92.4076 54.1077 92.6616C51.4553 91.0287 47.7796 88.7123 45.7366 85.9272C44.8694 84.7475 44.0139 82.9662 44.3303 81.3608C44.6936 79.5366 46.8421 78.9662 45.8772 76.8256C44.5217 76.5092 44.0217 77.8217 43.721 78.7201C42.6077 81.9428 43.5413 86.5326 45.0178 89.5014C46.3733 92.2319 47.971 94.353 49.7835 96.4311C50.4085 97.1459 51.4788 98.1264 51.5296 98.6069C51.6194 99.6147 50.2014 100.451 50.4944 101.603ZM113.19 47.8022C110.42 46.1928 106.967 45.6264 103.877 45.5873C103.084 45.5795 104.498 50.6303 104.643 51.0834C105.166 52.7084 106.53 54.2592 107.756 55.4741C109.471 57.1733 112.955 58.0795 115.26 58.5873C117.85 59.1616 119.416 59.9741 120.979 62.31C121.264 62.7397 121.514 63.2241 121.717 63.7631C122.268 65.228 122.455 67.267 122.28 68.8022C122.037 70.892 120.287 73.8061 120.948 74.7045C121.619 75.6186 124.401 75.4194 125.291 75.0522C126.846 74.4116 125.924 72.5326 126.053 70.9975C126.186 69.4545 126.115 67.8178 126.694 66.353C127.959 63.1303 130.194 63.2553 132.541 61.1576C134.026 59.8373 134.596 58.3217 135.08 56.4897C131.076 56.5834 129.557 57.6381 126.455 62.5326C126.369 60.1772 127.17 56.8022 128.838 55.6069C131.912 53.4116 133.213 50.8998 134.166 48.5131C135.201 45.9272 135.049 42.0248 133.928 39.56C133.541 38.7123 133.451 37.8881 132.905 37.1889C131.475 37.9975 130.412 39.9272 129.541 41.3217C128.522 42.9545 128.026 45.4662 127.799 47.3491C127.748 47.7592 127.604 56.2006 125.916 54.4545C122.838 51.2826 124.854 44.267 124.221 40.4545C123.494 36.1186 118.803 28.8139 113.791 28.7983C112.639 32.0834 112.737 36.0639 114.127 39.517C116.405 45.1655 123.537 49.0092 122.338 58.2866C122.319 57.6147 117.483 50.2905 113.19 47.8022Z" fill="white"/>
</svg>
