<svg width="100" height="101" viewBox="0 0 100 101" fill="none" xmlns="http://www.w3.org/2000/svg">
<path d="M50.011 24.4682C35.8227 24.4682 24.3781 35.9152 24.3781 50.1069C24.3781 64.2986 35.8227 75.7456 50.011 75.7456C64.1997 75.7456 75.6443 64.2986 75.6443 50.1069C75.6443 35.9152 64.1997 24.4682 50.011 24.4682ZM50.011 66.7756C40.842 66.7756 33.3463 59.3002 33.3463 50.1069C33.3463 40.9136 40.82 33.4384 50.011 33.4384C59.2023 33.4384 66.676 40.9136 66.676 50.1069C66.676 59.3002 59.18 66.7756 50.011 66.7756ZM82.6717 23.4194C82.6717 26.7442 79.9943 29.3996 76.6927 29.3996C73.3687 29.3996 70.714 26.7219 70.714 23.4194C70.714 20.1169 73.391 17.4393 76.6927 17.4393C79.9943 17.4393 82.6717 20.1169 82.6717 23.4194ZM99.6487 29.4888C99.2693 21.4781 97.44 14.3823 91.5727 8.53603C85.7277 2.68977 78.6337 0.860031 70.6247 0.458378C62.3703 -0.0102144 37.6297 -0.0102144 29.3753 0.458378C21.3887 0.837718 14.2945 2.66746 8.42723 8.51373C2.55996 14.3599 0.752926 21.4558 0.351366 29.4665C-0.117122 37.7226 -0.117122 62.4689 0.351366 70.7249C0.73062 78.7356 2.55996 85.8316 8.42723 91.6779C14.2945 97.5239 21.3664 99.3539 29.3753 99.7556C37.6297 100.224 62.3703 100.224 70.6247 99.7556C78.6337 99.3762 85.7277 97.5462 91.5727 91.6779C97.4177 85.8316 99.247 78.7356 99.6487 70.7249C100.117 62.4689 100.117 37.7449 99.6487 29.4888ZM88.985 79.5836C87.245 83.9572 83.8763 87.3266 79.4813 89.0892C72.9003 91.7002 57.284 91.0976 50.011 91.0976C42.7383 91.0976 27.0998 91.6779 20.541 89.0892C16.1684 87.3489 12.7998 83.9796 11.0374 79.5836C8.42723 73.0009 9.02957 57.3812 9.02957 50.1069C9.02957 42.8326 8.44953 27.1905 11.0374 20.6302C12.7775 16.2566 16.1461 12.8872 20.541 11.1244C27.1221 8.5137 42.7383 9.1162 50.011 9.1162C57.284 9.1162 72.9223 8.53603 79.4813 11.1244C83.854 12.8649 87.2227 16.2343 88.985 20.6302C91.595 27.2128 90.9927 42.8326 90.9927 50.1069C90.9927 57.3812 91.595 73.0232 88.985 79.5836Z" fill="white"/>
</svg>
