<svg width="100" height="100" viewBox="0 0 100 100" fill="none" xmlns="http://www.w3.org/2000/svg">
<path d="M99.7674 38.5997L99.7685 38.5994L99.7374 38.3362C99.7371 38.3317 99.7368 38.3282 99.7361 38.3237C99.7357 38.3199 99.7354 38.3164 99.7347 38.3126L99.6187 37.3228C99.5955 37.124 99.5688 36.8975 99.5385 36.6392L99.5142 36.4334L99.4646 36.4397C98.2448 29.3153 94.894 22.5543 89.7043 16.7814C84.5389 11.0361 77.8279 6.4999 70.297 3.66312C63.8447 1.23258 56.9984 0 49.9492 0C40.4324 0 31.1897 2.29858 23.2208 6.64709C7.85399 15.0321 -1.2089 30.4444 0.130602 45.9121C0.82396 53.9161 3.8773 61.535 8.9608 67.9459C13.7455 73.98 20.2181 78.8494 27.6784 82.0276C32.2655 83.9816 36.801 84.9025 41.6033 85.8774L42.1654 85.9917C43.4877 86.2605 43.8432 86.6296 43.9349 86.7758C44.1045 87.0473 44.0159 87.5824 43.9477 87.8771C43.885 88.149 43.8203 88.4202 43.7555 88.6917C43.2399 90.851 42.7067 93.0842 43.1255 95.5462C43.6071 98.3764 45.328 99.9997 47.8472 100C47.8475 100 47.8475 100 47.8479 100C50.5576 100 53.6416 98.1333 55.6822 96.8983L55.9547 96.7338C60.823 93.7976 65.4095 90.4857 68.8611 87.9284C76.4142 82.332 84.9752 75.9887 91.3935 67.7824C97.8567 59.5173 100.901 48.8964 99.7674 38.5997ZM31.1415 54.2586H22.5143C21.2106 54.2586 20.1537 53.1732 20.1537 51.8343V33.2379C20.1537 31.899 21.2106 30.8136 22.5143 30.8136C23.8181 30.8136 24.875 31.899 24.875 33.2379V49.41H31.1412C32.4449 49.41 33.5018 50.4954 33.5018 51.8343C33.5022 53.1732 32.4453 54.2586 31.1415 54.2586ZM40.1413 51.7685C40.1413 53.1074 39.0844 54.1928 37.7807 54.1928C36.4769 54.1928 35.42 53.1074 35.42 51.7685V33.1721C35.42 31.8332 36.4769 30.7478 37.7807 30.7478C39.0844 30.7478 40.1413 31.8332 40.1413 33.1721V51.7685ZM61.4796 51.7685C61.4796 52.8189 60.821 53.7499 59.8481 54.0744C59.608 54.1544 59.3621 54.1932 59.1193 54.1932C58.3777 54.1932 57.6615 53.8333 57.2085 53.193L48.7078 41.1695V51.7689C48.7078 53.1078 47.6509 54.1932 46.3472 54.1932C45.0434 54.1932 43.9865 53.1078 43.9865 51.7689V33.7044C43.9865 32.654 44.6451 31.723 45.6181 31.3985C46.5913 31.0743 47.6567 31.4297 48.2576 32.2799L56.7583 44.3034V33.1721C56.7583 31.8332 57.8152 30.7478 59.119 30.7478C60.4227 30.7478 61.4796 31.8332 61.4796 33.1721V51.7685ZM78.6811 53.8112H66.9975C65.6937 53.8112 64.6368 52.7258 64.6368 51.3869V42.089V32.7904C64.6368 31.4515 65.6937 30.3661 66.9975 30.3661H78.3185C79.6223 30.3661 80.6792 31.4515 80.6792 32.7904C80.6792 34.1293 79.6223 35.2147 78.3185 35.2147H69.3582V39.6647H76.6297C77.9334 39.6647 78.9903 40.7501 78.9903 42.089C78.9903 43.4279 77.9334 44.5133 76.6297 44.5133H69.3582V48.9626H78.6811C79.9848 48.9626 81.0417 50.048 81.0417 51.3869C81.0417 52.7258 79.9848 53.8112 78.6811 53.8112Z" fill="white"/>
</svg>
